<?xml version="1.0" standalone="no"?><svg xmlns="http://www.w3.org/2000/svg" viewBox="0 0 1440 320"><path fill="#a2d9ff" fill-opacity="1" d="M0,96L20,101.3C40,107,80,117,120,128C160,139,200,149,240,133.3C280,117,320,75,360,53.3C400,32,440,32,480,74.7C520,117,560,203,600,197.3C640,192,680,96,720,53.3C760,11,800,21,840,48C880,75,920,117,960,128C1000,139,1040,117,1080,133.3C1120,149,1160,203,1200,192C1240,181,1280,107,1320,106.7C1360,107,1400,181,1420,218.7L1440,256L1440,0L1420,0C1400,0,1360,0,1320,0C1280,0,1240,0,1200,0C1160,0,1120,0,1080,0C1040,0,1000,0,960,0C920,0,880,0,840,0C800,0,760,0,720,0C680,0,640,0,600,0C560,0,520,0,480,0C440,0,400,0,360,0C320,0,280,0,240,0C200,0,160,0,120,0C80,0,40,0,20,0L0,0Z"></path></svg>